<svg width="800" height="800" viewBox="0 0 800 800" fill="none" xmlns="http://www.w3.org/2000/svg">
<g clip-path="url(#clip0_348_97)">
<path d="M210.847 426.08H298.539V787.097C298.539 794.224 304.315 800 311.443 800H460.129C467.257 800 473.032 794.224 473.032 787.097V427.781H573.843C580.398 427.781 585.912 422.862 586.661 416.351L601.972 283.443C602.392 279.786 601.234 276.124 598.787 273.381C596.338 270.635 592.834 269.063 589.156 269.063H473.038V185.75C473.038 160.635 486.56 147.899 513.234 147.899C517.035 147.899 589.156 147.899 589.156 147.899C596.284 147.899 602.059 142.121 602.059 134.996V12.9987C602.059 5.87097 596.284 0.0954839 589.156 0.0954839H484.524C483.786 0.0593548 482.147 0 479.732 0C461.577 0 398.472 3.56387 348.625 49.4219C293.394 100.24 301.071 161.086 302.906 171.636V269.061H210.847C203.719 269.061 197.943 274.836 197.943 281.964V413.174C197.943 420.302 203.719 426.08 210.847 426.08Z" fill="#6F6F6F"/>
</g>
<defs>
<clipPath id="clip0_348_97">
<rect width="800" height="800" fill="white"/>
</clipPath>
</defs>
</svg>
